<svg width="24" height="24" viewBox="0 0 24 24" fill="none" xmlns="http://www.w3.org/2000/svg">
<path fill-rule="evenodd" clip-rule="evenodd" d="M21.069 8.20407L12.622 1.48707C12.4453 1.34623 12.226 1.26953 12 1.26953C11.7741 1.26953 11.5548 1.34623 11.378 1.48707L2.93005 8.20407C2.6946 8.39135 2.50443 8.62933 2.37371 8.90029C2.24299 9.17126 2.17508 9.46822 2.17505 9.76907V19.1871C2.17505 19.8236 2.42791 20.434 2.87799 20.8841C3.32808 21.3342 3.93853 21.5871 4.57505 21.5871H10V16.8351C10 16.5699 10.1054 16.3155 10.2929 16.128C10.4805 15.9404 10.7348 15.8351 11 15.8351H13C13.2653 15.8351 13.5196 15.9404 13.7072 16.128C13.8947 16.3155 14 16.5699 14 16.8351V21.5871H19.424C20.0606 21.5871 20.671 21.3342 21.1211 20.8841C21.5712 20.434 21.824 19.8236 21.824 19.1871V9.77007C21.824 9.46922 21.7561 9.17226 21.6254 8.90129C21.4947 8.63033 21.3045 8.39235 21.069 8.20507" fill="#8F8F8F"/>
</svg>
